<?xml version="1.0" encoding="utf-8"?>
<!-- Generator: Adobe Illustrator 19.2.1, SVG Export Plug-In . SVG Version: 6.00 Build 0)  -->
<svg version="1.1" id="Layer_1" xmlns="http://www.w3.org/2000/svg" xmlns:xlink="http://www.w3.org/1999/xlink" x="0px" y="0px"
	 viewBox="0 0 286.2 187.7" style="enable-background:new 0 0 286.2 187.7;" xml:space="preserve">
<style type="text/css">
	.st0{fill:none;stroke:#114C86;stroke-miterlimit:10;}
	.st1{fill:#114C86;}
	.st2{fill:url(#SVGID_1_);}
	.st3{fill:url(#SVGID_2_);}
	.st4{fill:url(#SVGID_3_);}
	.st5{fill:url(#SVGID_4_);}
	.st6{fill:url(#SVGID_5_);}
	.st7{fill:url(#SVGID_6_);}
	.st8{fill:url(#SVGID_7_);}
	.st9{fill:url(#SVGID_8_);}
	.st10{fill:url(#SVGID_9_);}
	.st11{fill:url(#SVGID_10_);}
	.st12{fill:url(#SVGID_11_);}
	.st13{fill:url(#SVGID_12_);}
	.st14{fill:url(#SVGID_13_);}
	.st15{fill:url(#SVGID_14_);}
	.st16{fill:url(#SVGID_15_);}
	.st17{fill:url(#SVGID_16_);}
	.st18{fill:url(#SVGID_17_);}
	.st19{fill:url(#SVGID_18_);}
	.st20{fill:url(#SVGID_19_);}
	.st21{fill:url(#SVGID_20_);}
	.st22{fill:url(#SVGID_21_);}
	.st23{fill:url(#SVGID_22_);}
	.st24{fill:url(#SVGID_23_);}
</style>
<g>
	<line class="st0" x1="32.2" y1="85.9" x2="48.1" y2="57.1"/>
	<line class="st0" x1="48.1" y1="57.1" x2="78.7" y2="38.7"/>
	<line class="st0" x1="78.7" y1="38.7" x2="107.9" y2="37.3"/>
	<line class="st0" x1="107.9" y1="37.3" x2="135.1" y2="41.9"/>
	<line class="st0" x1="135.1" y1="41.9" x2="153.7" y2="50.2"/>
	<line class="st0" x1="153.7" y1="50.2" x2="170" y2="70.6"/>
	<line class="st0" x1="170" y1="70.6" x2="170" y2="91.1"/>
	<line class="st0" x1="170" y1="91.1" x2="152.1" y2="103.6"/>
	<line class="st0" x1="152.1" y1="103.6" x2="129.6" y2="106.5"/>
	<line class="st0" x1="129.6" y1="106.5" x2="100.8" y2="110.7"/>
	<line class="st0" x1="100.8" y1="110.7" x2="86.4" y2="130.9"/>
	<line class="st0" x1="86.4" y1="130.9" x2="60.2" y2="127.8"/>
	<line class="st0" x1="60.2" y1="127.8" x2="43.1" y2="110.5"/>
	<line class="st0" x1="43.1" y1="110.5" x2="32.2" y2="85.9"/>
	<line class="st0" x1="67.2" y1="87.6" x2="74.3" y2="59.2"/>
	<line class="st0" x1="74.3" y1="59.2" x2="93.6" y2="71.2"/>
	<line class="st0" x1="93.6" y1="71.2" x2="117" y2="59.2"/>
	<line class="st0" x1="117" y1="59.2" x2="145" y2="73.1"/>
	<line class="st0" x1="145" y1="73.1" x2="117" y2="84.8"/>
	<line class="st0" x1="117" y1="84.8" x2="94.1" y2="91.1"/>
	<line class="st0" x1="94.1" y1="91.1" x2="76.9" y2="109.4"/>
	<line class="st0" x1="76.9" y1="109.4" x2="67.2" y2="87.6"/>
	<line class="st0" x1="67.2" y1="87.6" x2="93.6" y2="71.2"/>
	<line class="st0" x1="93.6" y1="71.2" x2="94.1" y2="91.1"/>
	<line class="st0" x1="67.2" y1="87.6" x2="94.1" y2="91.1"/>
	<line class="st0" x1="93.6" y1="71.2" x2="117" y2="84.8"/>
	<line class="st0" x1="117" y1="84.8" x2="117" y2="59.2"/>
	<line class="st0" x1="48.1" y1="57.1" x2="74.3" y2="61.3"/>
	<line class="st0" x1="74.3" y1="61.3" x2="78.7" y2="38.7"/>
	<line class="st0" x1="107.9" y1="38.7" x2="117" y2="59.2"/>
	<line class="st0" x1="117" y1="59.2" x2="135.1" y2="41.9"/>
	<line class="st0" x1="135.1" y1="41.9" x2="145" y2="73.1"/>
	<line class="st0" x1="145" y1="73.1" x2="153.7" y2="48"/>
	<line class="st0" x1="146.6" y1="72" x2="170" y2="70.6"/>
	<line class="st0" x1="170" y1="91.1" x2="145" y2="73.1"/>
	<line class="st0" x1="145" y1="73.1" x2="152.1" y2="103.6"/>
	<line class="st0" x1="145" y1="73.1" x2="129.6" y2="106.5"/>
	<line class="st0" x1="129.6" y1="106.5" x2="117" y2="84.8"/>
	<line class="st0" x1="117" y1="84.8" x2="100.8" y2="110.7"/>
	<line class="st0" x1="100.8" y1="110.7" x2="94.1" y2="91.1"/>
	<line class="st0" x1="76.9" y1="109.4" x2="100.8" y2="110.7"/>
	<line class="st0" x1="86.4" y1="130.9" x2="76.9" y2="109.4"/>
	<line class="st0" x1="76.9" y1="109.4" x2="60.2" y2="127.8"/>
	<line class="st0" x1="76.9" y1="109.4" x2="43.1" y2="110.5"/>
	<line class="st0" x1="43.1" y1="110.5" x2="67.2" y2="87.6"/>
	<line class="st0" x1="67.2" y1="87.6" x2="32.2" y2="85.9"/>
	<line class="st0" x1="48.1" y1="57.1" x2="67.2" y2="87.6"/>
	<line class="st0" x1="74.3" y1="61.3" x2="93.7" y2="52.5"/>
	<line class="st0" x1="78.7" y1="38.7" x2="93.7" y2="52.5"/>
	<line class="st0" x1="93.7" y1="52.5" x2="107.9" y2="37.3"/>
	<line class="st0" x1="93.7" y1="52.5" x2="117" y2="59.2"/>
	<line class="st0" x1="93.7" y1="52.5" x2="93.6" y2="71.2"/>
</g>
<g>
	<path class="st1" d="M119.1,153.2h17.3v7.7h-27.3v-41.3h10V153.2z"/>
	<path class="st1" d="M173.9,141c0,4-0.7,7.6-2.2,10.7c-1.5,3.1-3.6,5.5-6.4,7.2s-5.9,2.5-9.4,2.5c-3.5,0-6.6-0.8-9.4-2.4
		c-2.7-1.6-4.9-3.9-6.4-6.9s-2.3-6.5-2.4-10.4v-2.3c0-4.1,0.7-7.6,2.2-10.7c1.5-3.1,3.6-5.5,6.4-7.2s5.9-2.5,9.5-2.5
		c3.5,0,6.6,0.8,9.4,2.5s4.9,4,6.4,7.1c1.5,3.1,2.3,6.6,2.3,10.6V141z M163.7,139.3c0-4.1-0.7-7.2-2.1-9.4c-1.4-2.1-3.3-3.2-5.9-3.2
		c-5,0-7.6,3.7-7.9,11.2l0,3c0,4.1,0.7,7.2,2,9.3c1.3,2.2,3.3,3.3,6,3.3c2.5,0,4.5-1.1,5.8-3.2c1.4-2.1,2.1-5.2,2.1-9.2V139.3z"/>
	<path class="st1" d="M194.4,146.2H189v14.6h-10v-41.3h16.3c4.9,0,8.7,1.1,11.5,3.3c2.8,2.2,4.1,5.2,4.1,9.2c0,2.9-0.6,5.3-1.7,7.1
		s-3,3.4-5.5,4.6l8.6,16.7v0.4h-10.7L194.4,146.2z M189,138.6h6.3c1.9,0,3.3-0.5,4.3-1.5c1-1,1.4-2.4,1.4-4.2c0-1.8-0.5-3.2-1.4-4.2
		c-1-1-2.4-1.5-4.3-1.5H189V138.6z"/>
	<path class="st1" d="M227.6,160.9h-9.9v-41.3h9.9V160.9z"/>
	<path class="st1" d="M255.8,149.9c0-1.5-0.5-2.6-1.5-3.4c-1-0.8-2.8-1.7-5.4-2.5c-2.6-0.9-4.7-1.7-6.4-2.5c-5.4-2.6-8-6.2-8-10.8
		c0-2.3,0.7-4.3,2-6.1c1.3-1.8,3.2-3.1,5.7-4.1c2.4-1,5.2-1.5,8.2-1.5c3,0,5.6,0.5,8,1.6c2.4,1.1,4.2,2.6,5.5,4.5c1.3,2,2,4.2,2,6.7
		h-9.9c0-1.7-0.5-3-1.5-3.9c-1-0.9-2.4-1.4-4.2-1.4c-1.8,0-3.2,0.4-4.2,1.2c-1,0.8-1.5,1.8-1.5,3c0,1.1,0.6,2,1.7,2.9s3.1,1.8,6,2.7
		c2.9,0.9,5.2,1.9,7,3c4.5,2.6,6.7,6.1,6.7,10.6c0,3.6-1.4,6.5-4.1,8.5c-2.7,2.1-6.5,3.1-11.2,3.1c-3.4,0-6.4-0.6-9.1-1.8
		c-2.7-1.2-4.8-2.8-6.1-4.9c-1.4-2.1-2.1-4.5-2.1-7.2h10c0,2.2,0.6,3.8,1.7,4.9s3,1.6,5.6,1.6c1.6,0,2.9-0.4,3.9-1.1
		C255.3,152.2,255.8,151.2,255.8,149.9z"/>
</g>
<g>
	<radialGradient id="SVGID_1_" cx="49.8376" cy="55.122" r="9.8821" gradientUnits="userSpaceOnUse">
		<stop  offset="0" style="stop-color:#B9E5FB"/>
		<stop  offset="1" style="stop-color:#124C86"/>
	</radialGradient>
	<circle class="st2" cx="48.1" cy="57.1" r="12.2"/>
	<radialGradient id="SVGID_2_" cx="109.1981" cy="35.778" r="7.4286" gradientUnits="userSpaceOnUse">
		<stop  offset="0" style="stop-color:#B9E5FB"/>
		<stop  offset="1" style="stop-color:#124C86"/>
	</radialGradient>
	<circle class="st3" cx="107.9" cy="37.3" r="9.2"/>
	<radialGradient id="SVGID_3_" cx="33.7933" cy="84.0884" r="8.8786" gradientUnits="userSpaceOnUse">
		<stop  offset="0" style="stop-color:#B9E5FB"/>
		<stop  offset="1" style="stop-color:#124C86"/>
	</radialGradient>
	<circle class="st4" cx="32.2" cy="85.9" r="11"/>
	<radialGradient id="SVGID_4_" cx="80.0079" cy="37.1769" r="7.5185" gradientUnits="userSpaceOnUse">
		<stop  offset="0" style="stop-color:#B9E5FB"/>
		<stop  offset="1" style="stop-color:#124C86"/>
	</radialGradient>
	<circle class="st5" cx="78.7" cy="38.7" r="9.3"/>
	<radialGradient id="SVGID_5_" cx="171.3755" cy="69.0383" r="7.5185" gradientUnits="userSpaceOnUse">
		<stop  offset="0" style="stop-color:#B9E5FB"/>
		<stop  offset="1" style="stop-color:#124C86"/>
	</radialGradient>
	<circle class="st6" cx="170" cy="70.6" r="9.3"/>
	<radialGradient id="SVGID_6_" cx="75.3367" cy="60.1301" r="5.7296" gradientUnits="userSpaceOnUse">
		<stop  offset="0" style="stop-color:#B9E5FB"/>
		<stop  offset="1" style="stop-color:#124C86"/>
	</radialGradient>
	<circle class="st7" cx="74.3" cy="61.3" r="7.1"/>
	<radialGradient id="SVGID_7_" cx="94.7588" cy="51.3234" r="5.7296" gradientUnits="userSpaceOnUse">
		<stop  offset="0" style="stop-color:#B9E5FB"/>
		<stop  offset="1" style="stop-color:#124C86"/>
	</radialGradient>
	<circle class="st8" cx="93.7" cy="52.5" r="7.1"/>
	<radialGradient id="SVGID_8_" cx="154.7137" cy="49.0065" r="5.7296" gradientUnits="userSpaceOnUse">
		<stop  offset="0" style="stop-color:#B9E5FB"/>
		<stop  offset="1" style="stop-color:#124C86"/>
	</radialGradient>
	<circle class="st9" cx="153.7" cy="50.2" r="7.1"/>
	<radialGradient id="SVGID_9_" cx="61.2763" cy="126.6789" r="5.7296" gradientUnits="userSpaceOnUse">
		<stop  offset="0" style="stop-color:#B9E5FB"/>
		<stop  offset="1" style="stop-color:#124C86"/>
	</radialGradient>
	<circle class="st10" cx="60.2" cy="127.8" r="7.1"/>
	<radialGradient id="SVGID_10_" cx="118.2396" cy="57.8276" r="6.7622" gradientUnits="userSpaceOnUse">
		<stop  offset="0" style="stop-color:#B9E5FB"/>
		<stop  offset="1" style="stop-color:#124C86"/>
	</radialGradient>
	<circle class="st11" cx="117" cy="59.2" r="8.3"/>
	<radialGradient id="SVGID_11_" cx="144.9084" cy="71.512" r="7.9846" gradientUnits="userSpaceOnUse">
		<stop  offset="0" style="stop-color:#B9E5FB"/>
		<stop  offset="1" style="stop-color:#124C86"/>
	</radialGradient>
	<circle class="st12" cx="143.5" cy="73.1" r="9.8"/>
	<radialGradient id="SVGID_12_" cx="68.7077" cy="85.8951" r="8.1544" gradientUnits="userSpaceOnUse">
		<stop  offset="0" style="stop-color:#B9E5FB"/>
		<stop  offset="1" style="stop-color:#124C86"/>
	</radialGradient>
	<circle class="st13" cx="67.2" cy="87.6" r="10.1"/>
	<radialGradient id="SVGID_13_" cx="87.4303" cy="129.7152" r="5.7296" gradientUnits="userSpaceOnUse">
		<stop  offset="0" style="stop-color:#B9E5FB"/>
		<stop  offset="1" style="stop-color:#124C86"/>
	</radialGradient>
	<circle class="st14" cx="86.4" cy="130.9" r="7.1"/>
	<radialGradient id="SVGID_14_" cx="118.2144" cy="83.4791" r="6.6221" gradientUnits="userSpaceOnUse">
		<stop  offset="0" style="stop-color:#B9E5FB"/>
		<stop  offset="1" style="stop-color:#124C86"/>
	</radialGradient>
	<circle class="st15" cx="117" cy="84.8" r="8.2"/>
	<radialGradient id="SVGID_15_" cx="44.3363" cy="109.1734" r="6.6221" gradientUnits="userSpaceOnUse">
		<stop  offset="0" style="stop-color:#B9E5FB"/>
		<stop  offset="1" style="stop-color:#124C86"/>
	</radialGradient>
	<circle class="st16" cx="43.1" cy="110.5" r="8.2"/>
	<radialGradient id="SVGID_16_" cx="101.8252" cy="109.5098" r="5.7296" gradientUnits="userSpaceOnUse">
		<stop  offset="0" style="stop-color:#B9E5FB"/>
		<stop  offset="1" style="stop-color:#124C86"/>
	</radialGradient>
	<circle class="st17" cx="100.8" cy="110.7" r="7.1"/>
	<radialGradient id="SVGID_17_" cx="94.6017" cy="70.0056" r="5.7296" gradientUnits="userSpaceOnUse">
		<stop  offset="0" style="stop-color:#B9E5FB"/>
		<stop  offset="1" style="stop-color:#124C86"/>
	</radialGradient>
	<circle class="st18" cx="93.6" cy="71.2" r="7.1"/>
	<radialGradient id="SVGID_18_" cx="94.96" cy="90.116" r="4.9438" gradientUnits="userSpaceOnUse">
		<stop  offset="0" style="stop-color:#B9E5FB"/>
		<stop  offset="1" style="stop-color:#124C86"/>
	</radialGradient>
	<circle class="st19" cx="94.1" cy="91.1" r="6.1"/>
	<radialGradient id="SVGID_19_" cx="77.9261" cy="108.2523" r="5.7296" gradientUnits="userSpaceOnUse">
		<stop  offset="0" style="stop-color:#B9E5FB"/>
		<stop  offset="1" style="stop-color:#124C86"/>
	</radialGradient>
	<circle class="st20" cx="76.9" cy="109.4" r="7.1"/>
	<radialGradient id="SVGID_20_" cx="171.0528" cy="89.9559" r="5.7296" gradientUnits="userSpaceOnUse">
		<stop  offset="0" style="stop-color:#B9E5FB"/>
		<stop  offset="1" style="stop-color:#124C86"/>
	</radialGradient>
	<circle class="st21" cx="170" cy="91.1" r="7.1"/>
	<radialGradient id="SVGID_21_" cx="153.1423" cy="102.4773" r="5.7296" gradientUnits="userSpaceOnUse">
		<stop  offset="0" style="stop-color:#B9E5FB"/>
		<stop  offset="1" style="stop-color:#124C86"/>
	</radialGradient>
	<circle class="st22" cx="152.1" cy="103.6" r="7.1"/>
	<radialGradient id="SVGID_22_" cx="136.1066" cy="40.6931" r="5.7296" gradientUnits="userSpaceOnUse">
		<stop  offset="0" style="stop-color:#B9E5FB"/>
		<stop  offset="1" style="stop-color:#124C86"/>
	</radialGradient>
	<circle class="st23" cx="135.1" cy="41.9" r="7.1"/>
	<radialGradient id="SVGID_23_" cx="130.8046" cy="105.1058" r="6.7622" gradientUnits="userSpaceOnUse">
		<stop  offset="0" style="stop-color:#B9E5FB"/>
		<stop  offset="1" style="stop-color:#124C86"/>
	</radialGradient>
	<circle class="st24" cx="129.6" cy="106.5" r="8.3"/>
</g>
</svg>
